<svg width="18" height="14" viewBox="0 0 18 14" fill="none" xmlns="http://www.w3.org/2000/svg">
<path d="M17.3334 3.27917V11.1667C17.3334 11.8044 17.0897 12.4179 16.6523 12.8819C16.2148 13.3458 15.6166 13.6251 14.98 13.6625L14.8334 13.6667H3.16669C2.52901 13.6667 1.91542 13.4231 1.45147 12.9856C0.987515 12.5481 0.708264 11.9499 0.670854 11.3133L0.666687 11.1667V3.27917L8.53752 8.52667L8.63419 8.58167C8.74811 8.63734 8.87323 8.66627 9.00002 8.66627C9.12681 8.66627 9.25193 8.63734 9.36585 8.58167L9.46252 8.52667L17.3334 3.27917Z" fill="#C1C1C1"/>
<path d="M14.8334 0.333344C15.7334 0.333344 16.5225 0.808344 16.9625 1.52251L9.00004 6.83084L1.03754 1.52251C1.24648 1.18315 1.53355 0.898678 1.87479 0.692829C2.21604 0.48698 2.60156 0.365724 2.9992 0.339177L3.1667 0.333344H14.8334Z" fill="#C1C1C1"/>
</svg>
