<svg width="18" height="18" viewBox="0 0 18 18" fill="none" xmlns="http://www.w3.org/2000/svg">
<path d="M9 0.25C11.3206 0.25 13.5462 1.17187 15.1872 2.81282C16.8281 4.45376 17.75 6.67936 17.75 9C17.75 11.3206 16.8281 13.5462 15.1872 15.1872C13.5462 16.8281 11.3206 17.75 9 17.75C6.67936 17.75 4.45376 16.8281 2.81282 15.1872C1.17187 13.5462 0.25 11.3206 0.25 9C0.25 6.67936 1.17187 4.45376 2.81282 2.81282C4.45376 1.17187 6.67936 0.25 9 0.25ZM9 4C8.8413 3.99986 8.68431 4.03282 8.53907 4.09678C8.39382 4.16073 8.26352 4.25428 8.15647 4.37145C8.04942 4.48861 7.96799 4.62681 7.91737 4.77723C7.86676 4.92764 7.84807 5.08696 7.8625 5.245L8.31875 10.2525C8.33644 10.4209 8.41584 10.5767 8.54164 10.69C8.66743 10.8032 8.83072 10.8659 9 10.8659C9.16928 10.8659 9.33257 10.8032 9.45836 10.69C9.58416 10.5767 9.66356 10.4209 9.68125 10.2525L10.1363 5.245C10.1507 5.08706 10.132 4.92785 10.0815 4.77752C10.0309 4.62719 9.94961 4.48905 9.8427 4.37191C9.73579 4.25476 9.60563 4.16119 9.46054 4.09716C9.31544 4.03312 9.1586 4.00003 9 4ZM9 14C9.26522 14 9.51957 13.8946 9.70711 13.7071C9.89464 13.5196 10 13.2652 10 13C10 12.7348 9.89464 12.4804 9.70711 12.2929C9.51957 12.1054 9.26522 12 9 12C8.73478 12 8.48043 12.1054 8.29289 12.2929C8.10536 12.4804 8 12.7348 8 13C8 13.2652 8.10536 13.5196 8.29289 13.7071C8.48043 13.8946 8.73478 14 9 14Z" fill="#FF4F4F"/>
</svg>
