<?xml version="1.0" encoding="UTF-8"?>
<svg id="_Слой_2" data-name="Слой 2" xmlns="http://www.w3.org/2000/svg" xmlns:xlink="http://www.w3.org/1999/xlink" viewBox="0 0 761.8 732.62">
  <defs>
    <style>
      .cls-1 {
        fill: none;
      }

      .cls-1, .cls-2, .cls-3 {
        stroke-width: 0px;
      }

      .cls-2 {
        fill: url(#_Новый_узор);
      }

      .cls-3 {
        fill: url(#_Безымянный_градиент_5);
      }
    </style>
    <linearGradient id="_Безымянный_градиент_5" data-name="Безымянный градиент 5" x1="545.36" y1="-15943.19" x2="1345.36" y2="-15943.19" gradientTransform="translate(-545.36 -15543.19) scale(1 -1)" gradientUnits="userSpaceOnUse">
      <stop offset="0" stop-color="#6451cd"/>
      <stop offset="1" stop-color="#bf65f9"/>
    </linearGradient>
    <pattern id="_Новый_узор" data-name="Новый узор" x="0" y="0" width="800" height="800" patternTransform="translate(-19.97 766.37)" patternUnits="userSpaceOnUse" viewBox="0 0 800 800">
      <g>
        <rect class="cls-1" width="800" height="800"/>
        <rect class="cls-3" width="800" height="800"/>
      </g>
    </pattern>
  </defs>
  <g id="_Слой_1-2" data-name="Слой 1">
    <g>
      <path class="cls-2" d="M736.03,392.47c52.79-9.83,8.5,111.35,1,134.4-35.46,94.9-128.98,181.31-220.8,205.5-8.33-.61-17.82-7.93-16-18,1.74-20.86,43.72-24.22,59.3-37.5,64.14-34.32,117.08-93.76,144.6-161,14-36.6,21.8-71.9,21.9-99.6,0-13.7,3.1-21,10-23.8Z"/>
      <path class="cls-2" d="M369.53,38.17c264.18-11.57,432.16,289.86,286.2,508.69-140.08,217.95-473.72,188.82-576.1-46.99C-17.81,292.4,142.73,39.85,369.53,38.17ZM661.93,453.37c56.75-170.44-70.36-361.92-247.1-379.1C143.01,42.66-22.99,373.89,168.53,570.16c151.72,164.13,430.96,91.88,493.4-116.79Z"/>
      <path class="cls-2" d="M495.53,169.07c58.05-10.16,105.66,55.98,75.1,107.5-17.84,37.15-80.47,41.05-105.1,58.8-41.1,28.68-17.97,26.19-67.4-13.6l-4.4-4.1c6.48-8.37,13.98-22.13,21.4-37.8,15.94-37.64,26.46-103.93,80.4-110.8Z"/>
      <path class="cls-2" d="M543.03,482.37c70.92,42.9-2.95,114.82-45.6,51.5-30.72-35.86-57.3-67.07-85.4-100.5-24.18-29.35-52.44-62.77-80.4-91-68.17-5.42-81.54-32.69-139.1-91.2-26.34-27.32-29.71-30.49-11.2-39.8,1.2,0,12.1,10.2,29.9,28,30,30,30.7,30.5,38,28.1.42.93,40.97-27.92,31.9-40.4-.14-2.17-52.96-53.86-52.1-55.6-2.51-4.14,1.76-9.33,4.9-11.5,18.14-4.38,20.29,13.02,47.6,35.9,37.28,39.89,38.18,29.24,60.2,71.4,7.94,15.98,14.17,37.99,15.5,55l9.7,9.3c43.15,41.57,101.19,87.19,146.8,126.4,15.98,13.02,14.87,12.99,29.3,24.4Z"/>
      <path class="cls-2" d="M332.03,389.47c3.79-8.4,27.85,28.4,30.8,31-29.4,38.67-73.29,81.54-105.3,119.5-28.52,41.8-83.33,8.85-66.1-31.9,4.3-7.2,6.3-9,42-37.5,39.64-32.31,63.75-51.63,98.6-81.1Z"/>
      <path class="cls-2" d="M262.03,233.27c11.58,7.76-2.73,16.18-8.6,20.1-7.22-3.22-30.52-29.82-38.4-36.9-18.23-19.38-22.36-19.21-10.7-31.1,14.26-6.25,40.06,32.86,57.7,47.9Z"/>
      <path class="cls-2" d="M231.53,3.77c23.3-15.12,40.12,22.85,15.5,32.1-16.9,5.26-41.97,17.31-57.9,26.9C104.33,112.43,39.98,209.73,35.43,312.37c2.33,27.77-14.39,34.35-29.9,24.7-15.91-29.46,8-102.4,20.9-137.2C64.1,108.34,139.51,37.78,231.53,3.77Z"/>
    </g>
  </g>
</svg>