<svg width="153" height="179" viewBox="0 0 153 179" fill="none" xmlns="http://www.w3.org/2000/svg">
<path d="M46.5451 0.660239C45.6603 1.00978 44.5343 1.45641 44.0316 1.6506C42.3626 2.29142 37.1144 4.79644 35.3047 5.80621C34.3194 6.34994 33.4949 6.79657 33.4547 6.79657C33.133 6.79657 26.0751 11.593 25.7332 12.0396C25.6729 12.0979 24.9088 12.7776 24.0241 13.5155C21.4301 15.671 17.9917 19.1275 15.7597 21.8267C13.6081 24.4288 12.0598 26.4872 12.0598 26.7785C12.0598 26.8756 11.919 27.0504 11.7582 27.1863C11.0745 27.73 7.23385 34.3907 6.0877 36.9928C5.80618 37.6336 5.46435 38.4298 5.30348 38.7405C4.90132 39.5755 3.03127 44.7603 2.70954 45.9254C1.26177 51.1296 1.22155 51.3433 0.497661 56.7028C-0.286552 62.4702 -0.186012 64.0431 1.1009 65.383C2.26717 66.6064 4.61981 66.4705 6.1078 65.0918C6.93223 64.3538 6.97245 64.1596 7.1132 60.5866C7.23385 57.6349 7.61591 54.8969 8.3398 51.751C9.20444 48.0421 10.7528 43.3039 11.8185 41.1096C12.0397 40.6629 12.5424 39.5949 12.9445 38.7405C13.3467 37.886 13.769 37.051 13.8695 36.8957C13.97 36.7403 14.3923 35.983 14.7945 35.2451C15.9808 33.0119 18.7759 28.9728 20.4649 27.0115C24.748 22.0597 26.9397 19.9042 30.6597 17.0885C31.9868 16.0787 33.2335 15.1466 33.3944 15.0496C33.8368 14.7777 37.1345 12.6805 38.0193 12.1173C38.4013 11.8649 38.7834 11.6513 38.8437 11.6513C38.9241 11.6513 39.7485 11.2046 40.7137 10.6803C41.6789 10.1366 42.4832 9.70939 42.5234 9.70939C42.5838 9.70939 43.2675 9.41811 44.0718 9.04915C45.5397 8.36949 48.7167 7.14611 49.6618 6.89367C51.1498 6.46645 52.4568 4.54399 52.1753 3.14584C51.8134 1.32048 50.4661 0 48.958 0C48.5156 0.0194188 47.4298 0.3107 46.5451 0.660239Z" fill="#6451CE"/>
<path d="M74.2941 7.34027C70.4535 7.4762 64.6222 8.13644 61.9277 8.75784C52.4568 10.8939 46.163 13.6902 37.0541 19.7683C36.6117 20.079 36.0889 20.4479 35.9079 20.6033C35.5661 20.914 35.6264 20.8557 33.6759 22.351C32.4493 23.3025 29.0511 26.526 26.8593 28.8369C25.0093 30.7593 20.5253 36.6432 19.9622 37.8666C19.8818 38.0219 19.6204 38.4686 19.3791 38.857C19.1177 39.2453 18.5748 40.2163 18.1324 40.993C14.7744 47.0905 12.2609 54.0813 11.175 60.3924C10.7125 63.0139 10.2501 68.4318 10.2501 71.1698C10.2501 75.1507 10.9941 81.7919 11.7582 84.6659C11.919 85.2484 12.2005 86.3359 12.3815 87.0932C12.8641 89.1516 13.8092 91.7537 16.001 96.9968C16.3227 97.7347 16.6243 98.3949 16.7047 98.4532C16.7651 98.5114 17.0868 99.1134 17.3884 99.8125C17.7101 100.512 18.1324 101.288 18.3335 101.541C18.5346 101.793 18.6954 102.065 18.6954 102.162C18.6954 102.24 18.9568 102.686 19.2585 103.153C19.5802 103.619 20.2035 104.551 20.666 105.25C21.1084 105.949 21.5709 106.59 21.6513 106.706C21.7519 106.803 22.1138 107.308 22.4757 107.832C22.8176 108.337 23.1996 108.862 23.3203 108.998C23.4409 109.114 24.0643 109.91 24.7077 110.726C29.5538 116.92 36.2296 122.435 44.5343 127.135C45.3587 127.601 49.0183 129.31 50.4661 129.912C51.2906 130.261 52.1552 130.611 52.3764 130.708C52.5976 130.805 53.1807 130.999 53.6834 131.174C54.1861 131.329 55.2518 131.698 56.0562 131.951C66.9547 135.562 81.533 136.009 92.7935 133.116C93.8995 132.824 95.0858 132.514 95.4076 132.436C96.1717 132.242 100.173 130.844 101.239 130.417C101.681 130.242 102.305 129.989 102.626 129.853C106.789 128.203 114.571 123.756 117.024 121.6C117.225 121.426 117.526 121.173 117.667 121.076C117.989 120.843 120.02 119.251 120.442 118.901C121.729 117.853 125.69 113.93 126.997 112.435C128.666 110.512 130.757 107.794 131.843 106.124C132.788 104.687 135.523 100.201 135.523 100.084C135.523 100.026 135.885 99.2299 136.348 98.2978C136.79 97.3657 137.333 96.2589 137.554 95.8122C137.755 95.3656 137.936 94.8801 137.936 94.7248C137.936 94.5694 138.016 94.3753 138.117 94.2782C138.218 94.1616 138.399 93.7733 138.499 93.4043C138.62 93.0354 138.982 91.9867 139.324 91.0741C139.645 90.1614 140.108 88.6661 140.349 87.7729C140.57 86.8602 140.892 85.6368 141.053 85.0542C141.214 84.4717 141.475 83.2483 141.636 82.3356C143.506 71.83 142.722 60.6642 139.444 51.3626C138.7 49.2654 138.338 48.2945 138.157 47.8673C138.057 47.6537 137.775 46.9934 137.534 46.4109C137.273 45.8283 136.709 44.6243 136.287 43.7505C135.865 42.8766 135.523 42.1193 135.523 42.0611C135.523 41.6338 130.918 34.546 129.611 32.9925C129.39 32.7012 128.928 32.1381 128.586 31.7303C121.588 23.1472 113.042 16.8555 101.842 12.0396C98.464 10.5832 91.6474 8.73842 87.1633 8.07818C83.7047 7.5733 77.5717 7.20434 74.2941 7.34027ZM83.4031 14.3505C85.3133 14.5641 86.9622 14.7971 87.0627 14.8553C87.1633 14.9136 87.8067 15.0689 88.4904 15.166C89.1741 15.2631 90.5012 15.5738 91.4664 15.8457C92.4115 16.1176 93.5979 16.4671 94.1006 16.603C97.2374 17.4963 101.601 19.2634 104.597 20.8752C105.723 21.4966 106.869 22.0985 107.11 22.2151C107.372 22.3316 107.573 22.4869 107.573 22.5646C107.573 22.6617 107.673 22.7199 107.774 22.7199C108.236 22.7199 113.585 26.526 115.697 28.3514C118.27 30.5846 121.689 34.1382 123.096 36.0218C123.177 36.1189 123.478 36.4684 123.78 36.7986C124.222 37.3035 125.871 39.6337 127.178 41.6533C128.586 43.8087 130.818 48.178 131.803 50.683C132.447 52.353 132.889 53.6346 133.814 56.6057C134.256 58.0039 134.679 60.1205 135.161 63.111C135.945 68.1793 135.684 77.9664 134.618 82.1414C134.477 82.724 134.297 83.559 134.216 83.9862C134.156 84.4134 133.975 85.1513 133.814 85.6368C133.673 86.1223 133.351 87.1709 133.09 87.967C132.628 89.5011 131.24 93.1713 130.918 93.7538C130.798 93.9286 130.295 94.919 129.792 95.9288C128.505 98.4726 127.962 99.3853 126.193 101.949C124.403 104.57 124.062 105.036 123.659 105.463C123.498 105.638 123.177 106.027 122.956 106.318C120.221 110.104 114.249 115.348 108.397 119.134C101.279 123.736 92.7935 126.708 83.4433 127.873C79.7635 128.339 72.2632 128.358 68.7644 127.892C64.5015 127.348 60.3191 126.319 55.6339 124.669C53.8443 124.028 49.9634 122.319 48.6564 121.581C48.4955 121.484 47.7314 121.037 46.9874 120.61C46.2233 120.163 45.5397 119.814 45.4391 119.814C45.3587 119.814 45.238 119.756 45.1978 119.659C45.1777 119.581 44.5141 119.134 43.7299 118.649C40.7338 116.804 36.9535 113.736 33.877 110.648C30.9412 107.735 28.9103 105.269 26.8392 102.143C26.3164 101.347 25.7332 100.473 25.5523 100.201C23.3605 96.8997 20.5454 90.4721 19.2786 85.9281C17.8107 80.6073 17.2879 76.7624 17.2879 71.4417C17.2879 65.0723 17.9916 60.4895 19.9823 54.0813C20.5051 52.4113 21.7317 49.2266 21.9328 49.0518C22.0334 48.9353 22.1138 48.7411 22.1138 48.5858C22.1138 48.3333 23.9838 44.6632 24.9691 42.9932C27.6636 38.3715 31.3434 33.9052 35.8677 29.7301C36.6318 29.031 37.4562 28.2737 37.6774 28.0407C38.3209 27.4387 42.1012 24.6618 43.3881 23.8462C48.3347 20.7392 51.0895 19.3605 55.9958 17.5351C57.0012 17.1662 58.7908 16.603 59.9772 16.2923C61.1837 15.9816 62.2293 15.6903 62.3299 15.6321C62.4103 15.5933 63.4157 15.3602 64.5619 15.1272C70.4535 13.9815 77.2902 13.6902 83.4031 14.3505Z" fill="#6451CE"/>
<path d="M47.0276 30.9924C46.7461 31.1283 46.344 31.5555 46.1429 31.9245C45.8211 32.507 45.801 32.6624 46.0423 33.2255C46.2233 33.6333 48.3145 35.8082 51.3308 38.721C54.0654 41.362 56.4181 43.7505 56.5186 44.0224C57.0213 45.3234 56.5588 46.508 54.9301 48.0226C51.9943 50.7413 50.9286 51.6151 50.1042 51.8675C48.6363 52.3336 48.4955 52.2365 42.4631 46.4109C38.8839 42.9543 36.6921 40.9736 36.4508 40.9736C35.9079 40.9736 34.7416 41.7504 34.4199 42.3329C33.7563 43.5563 34.2992 44.3719 38.7029 48.7023C44.7956 54.7027 48.3347 58.334 49.3401 59.5962C49.883 60.2565 50.4862 60.7225 51.8536 61.5381C53.1606 62.2954 57.524 64.4703 58.4088 64.781C61.5456 65.9267 63.6972 66.4122 65.527 66.4122H66.6732L68.4829 68.2182C70.0513 69.7717 71.7605 71.5582 73.2686 73.2088C74.1936 74.2186 77.7125 78.18 77.9136 78.413C78.0342 78.5489 78.2554 78.8208 78.4163 78.9956C79.1804 79.8112 81.2113 82.122 81.9352 83.0153C82.3775 83.5396 82.7797 84.025 82.84 84.0833C82.9004 84.1416 83.4031 84.7047 83.946 85.3455C84.509 85.9863 84.9916 86.5495 85.0519 86.6077C85.1122 86.666 85.5546 87.1903 86.0573 87.7729C86.56 88.3554 87.0024 88.8797 87.0627 88.938C87.123 88.9962 87.5855 89.5206 88.0882 90.1031C89.2143 91.3848 89.9181 92.2003 90.9838 93.3849C91.9289 94.4529 92.9343 95.5792 95.7092 98.7445C96.8352 100.026 97.9613 101.288 98.2026 101.56C98.4439 101.832 99.2683 102.745 100.012 103.599C103.33 107.328 104.255 107.988 106.688 108.357C110.971 109.017 114.309 106.745 115.033 102.648C115.616 99.327 114.631 97.8124 109.182 93.5985C108.015 92.7052 107.03 91.9285 106.97 91.8702C106.809 91.6955 104.577 89.8701 103.29 88.8603C102.646 88.3554 101.963 87.7923 101.762 87.6175C101.138 87.035 100.093 86.1805 98.4439 84.8989C97.539 84.1998 96.7749 83.5784 96.7146 83.5201C96.614 83.4036 94.7842 81.9084 93.7989 81.1511C93.5777 80.9763 92.7131 80.2772 91.8886 79.617C91.0642 78.9373 89.9784 78.0829 89.4958 77.6945C88.6513 77.0343 84.509 73.6554 83.4433 72.7622C82.6993 72.1407 80.0048 69.8493 79.6227 69.5192C76.9685 67.2084 75.4001 65.8102 73.7713 64.315L71.8208 62.509L71.6801 61.3051C71.3584 58.5476 70.0714 54.4502 68.7041 51.8287C66.7134 48.0809 65.8487 46.7604 64.5417 45.5564C63.8379 44.9156 60.2587 41.4785 56.5991 37.9637C52.9595 34.4295 49.702 31.3613 49.3803 31.1089C48.7368 30.6234 47.832 30.5846 47.0276 30.9924Z" fill="#6451CE"/>
<path d="M99.6303 32.7595C96.0108 33.5751 93.1354 35.1674 90.9034 37.6142C89.1339 39.5561 88.0481 41.5562 87.0628 44.6632C85.8161 48.6246 84.4889 52.1783 83.4634 54.2755C82.257 56.7805 80.4874 59.8875 79.663 60.9555L79.1603 61.6158L80.0451 62.412C81.4929 63.713 83.9058 65.7714 84.5292 66.2375C84.8509 66.4705 85.3938 66.9365 85.7356 67.2472C86.0775 67.5579 86.7411 68.1211 87.2236 68.49C88.1486 69.2474 88.1285 69.2474 89.3752 68.0822C90.1795 67.3249 92.6126 65.5772 93.5979 65.0529C96.8956 63.2664 98.7656 62.5479 104.858 60.6643C106.628 60.1205 106.749 60.0817 108.478 59.305C110.891 58.2175 113.485 55.8872 114.731 53.6347C118.049 47.6731 116.883 40.7989 111.755 36.216C109.222 33.9634 105.482 32.6041 101.902 32.643C100.877 32.6624 99.8515 32.7012 99.6303 32.7595Z" fill="#6451CE"/>
<path d="M41.0757 35.9247C40.4926 36.1577 39.8089 37.2258 39.8089 37.9054C39.8089 38.5268 40.4121 39.2453 43.2273 41.9639C44.3935 43.0902 46.5049 45.168 47.9325 46.5662C49.6618 48.2945 50.6471 49.1295 50.9487 49.1295C51.4313 49.1295 53.6834 47.0128 53.6834 46.5662C53.6834 46.4108 53.2411 45.8089 52.678 45.2263C50.5868 43.0126 43.5088 36.1577 43.0865 35.9441C42.5637 35.6917 41.699 35.6917 41.0757 35.9247Z" fill="#6451CE"/>
<path d="M66.7537 75.5585C66.4721 75.7721 65.9895 76.1993 65.6477 76.4711C65.326 76.7624 64.6021 77.345 64.0391 77.7722C63.4962 78.18 62.913 78.646 62.7522 78.8014C62.5913 78.9373 61.8272 79.5587 61.043 80.1607C60.2588 80.7627 59.5751 81.3258 59.5148 81.3841C59.4343 81.4812 57.4436 83.0541 55.7948 84.3163C55.6942 84.4134 55.3725 84.6659 55.091 84.8795C54.8095 85.1125 54.2666 85.5203 53.8845 85.8116C53.5025 86.0834 53.04 86.4524 52.8791 86.6077C52.477 86.9767 49.3803 89.404 46.9271 91.3071C39.7486 96.8414 39.3464 97.191 38.4818 98.5891C37.9388 99.463 37.8986 99.6572 37.8986 101.56C37.8986 103.327 37.959 103.716 38.3812 104.473C39.9698 107.386 42.4632 108.745 45.7207 108.493C47.9325 108.299 48.9379 107.697 51.7732 104.784C51.9944 104.57 52.7786 103.716 53.4824 102.92C54.2062 102.123 54.9301 101.347 55.091 101.172C55.2519 100.997 55.9355 100.259 56.5991 99.5212C57.2627 98.8027 57.9866 98.0066 58.2077 97.793C58.4289 97.5599 59.3338 96.6084 60.2185 95.6569C62.0484 93.6762 61.9679 93.7539 63.7374 91.9285C64.4613 91.1906 65.9493 89.5788 67.0553 88.3554C68.1612 87.132 69.2873 85.9087 69.5688 85.6368C70.6948 84.5299 73.0274 81.7531 72.9469 81.5783C72.8866 81.3647 72.022 80.3161 70.9562 79.1509C70.5742 78.7043 70.0514 78.1023 69.79 77.7722C69.046 76.8207 67.4977 75.1507 67.377 75.1507C67.3167 75.1701 67.0352 75.3449 66.7537 75.5585Z" fill="#6451CE"/>
<path d="M147.99 76.141C146.603 76.6847 145.979 78.1023 145.979 80.7627C145.959 86.1417 144.391 92.9965 141.576 100.104C140.47 102.9 137.474 108.299 135.583 110.92C135.221 111.425 134.92 111.93 134.92 112.027C134.92 112.124 134.86 112.241 134.759 112.279C134.679 112.299 134.256 112.823 133.814 113.406C131.28 116.804 126.997 121.251 123.76 123.853C122.875 124.571 121.93 125.348 121.649 125.581C121.367 125.834 121.106 126.028 121.025 126.028C120.965 126.028 120.382 126.436 119.718 126.921C119.075 127.426 117.908 128.203 117.124 128.688C116.36 129.174 115.475 129.737 115.174 129.931C114.872 130.125 114.571 130.3 114.51 130.3C114.45 130.3 113.545 130.785 112.499 131.368C111.454 131.951 110.167 132.611 109.644 132.844C109.121 133.057 108.236 133.465 107.673 133.718C107.131 133.97 105.582 134.611 104.255 135.135C101.279 136.3 100.716 136.844 100.575 138.65C100.495 139.679 100.555 139.932 101.018 140.592C101.621 141.466 102.827 142.145 103.793 142.145C105.2 142.145 108.9 140.728 113.766 138.378C115.737 137.407 116.42 136.98 116.42 136.708C116.42 136.417 116.541 136.359 116.943 136.436C117.506 136.533 118.572 135.97 122.151 133.64C124.021 132.417 126.716 130.494 127.078 130.106C127.138 130.048 127.761 129.543 128.485 128.98C131.481 126.61 135.362 122.649 138.177 119.037C138.821 118.241 139.404 117.484 139.504 117.387C139.605 117.27 140.49 116.008 141.495 114.571C143.184 112.143 143.486 111.658 144.21 110.299C144.351 110.027 144.511 109.774 144.592 109.716C144.793 109.541 146.381 106.376 147.206 104.473C147.648 103.463 148.091 102.453 148.191 102.24C148.392 101.774 149.056 100.065 149.498 98.8416C150.986 94.8607 152.595 87.0155 152.937 82.3162C153.178 78.8402 152.756 77.3644 151.227 76.374C150.483 75.8886 148.935 75.7915 147.99 76.141Z" fill="#6451CE"/>
<path d="M12.1342 178.697V156.545H27.1299V160.406H16.8394V165.685H26.3584V169.546H16.8394V174.836H27.1734V178.697H12.1342Z" fill="#6451CE"/>
<path d="M41.183 165.793V169.449H31.0337V165.793H41.183Z" fill="#6451CE"/>
<path d="M43.4405 160.406V156.545H61.7179V160.406H54.9047V178.697H50.2538V160.406H43.4405Z" fill="#6451CE"/>
<path d="M65.8445 178.697H60.8024L68.4851 156.545H74.5485L82.2203 178.697H77.1782L71.6037 161.607H71.4299L65.8445 178.697ZM65.5294 169.99H77.439V173.646H65.5294V169.99Z" fill="#6451CE"/>
<path d="M84.8989 178.697V156.545H89.604V174.836H99.1448V178.697H84.8989Z" fill="#6451CE"/>
<path d="M121.845 167.621C121.845 170.037 121.385 172.092 120.465 173.786C119.552 175.481 118.306 176.775 116.727 177.67C115.155 178.557 113.387 179 111.424 179C109.446 179 107.671 178.553 106.099 177.659C104.527 176.765 103.285 175.47 102.372 173.776C101.459 172.081 101.003 170.029 101.003 167.621C101.003 165.205 101.459 163.15 102.372 161.455C103.285 159.761 104.527 158.47 106.099 157.583C107.671 156.689 109.446 156.242 111.424 156.242C113.387 156.242 115.155 156.689 116.727 157.583C118.306 158.47 119.552 159.761 120.465 161.455C121.385 163.15 121.845 165.205 121.845 167.621ZM117.075 167.621C117.075 166.056 116.839 164.736 116.368 163.662C115.905 162.588 115.249 161.773 114.401 161.217C113.554 160.662 112.561 160.385 111.424 160.385C110.287 160.385 109.294 160.662 108.447 161.217C107.599 161.773 106.94 162.588 106.469 163.662C106.005 164.736 105.773 166.056 105.773 167.621C105.773 169.186 106.005 170.505 106.469 171.58C106.94 172.654 107.599 173.469 108.447 174.024C109.294 174.58 110.287 174.857 111.424 174.857C112.561 174.857 113.554 174.58 114.401 174.024C115.249 173.469 115.905 172.654 116.368 171.58C116.839 170.505 117.075 169.186 117.075 167.621Z" fill="#6451CE"/>
<path d="M143.945 156.545V178.697H139.881L130.198 164.754H130.035V178.697H125.33V156.545H129.46L139.066 170.476H139.261V156.545H143.945Z" fill="#6451CE"/>
</svg>
