<svg width="14" height="19" viewBox="0 0 14 19" fill="none" xmlns="http://www.w3.org/2000/svg">
<path d="M7.00001 14.1667C7.44204 14.1667 7.86596 13.9911 8.17852 13.6785C8.49108 13.366 8.66668 12.942 8.66668 12.5C8.66668 12.058 8.49108 11.6341 8.17852 11.3215C7.86596 11.0089 7.44204 10.8333 7.00001 10.8333C6.55798 10.8333 6.13406 11.0089 5.8215 11.3215C5.50894 11.6341 5.33334 12.058 5.33334 12.5C5.33334 12.942 5.50894 13.366 5.8215 13.6785C6.13406 13.9911 6.55798 14.1667 7.00001 14.1667ZM12 6.66667C12.442 6.66667 12.866 6.84226 13.1785 7.15482C13.4911 7.46739 13.6667 7.89131 13.6667 8.33334V16.6667C13.6667 17.1087 13.4911 17.5326 13.1785 17.8452C12.866 18.1577 12.442 18.3333 12 18.3333H2.00001C1.55798 18.3333 1.13406 18.1577 0.821499 17.8452C0.508938 17.5326 0.333344 17.1087 0.333344 16.6667V8.33334C0.333344 7.89131 0.508938 7.46739 0.821499 7.15482C1.13406 6.84226 1.55798 6.66667 2.00001 6.66667H2.83334V5C2.83334 3.89493 3.27233 2.83513 4.05373 2.05372C4.83513 1.27232 5.89494 0.833336 7.00001 0.833336C7.54718 0.833336 8.089 0.94111 8.59452 1.1505C9.10005 1.3599 9.55938 1.66681 9.94629 2.05372C10.3332 2.44063 10.6401 2.89996 10.8495 3.40549C11.0589 3.91101 11.1667 4.45283 11.1667 5V6.66667H12ZM7.00001 2.5C6.33697 2.5 5.70108 2.76339 5.23224 3.23224C4.7634 3.70108 4.50001 4.33696 4.50001 5V6.66667H9.50001V5C9.50001 4.33696 9.23662 3.70108 8.76778 3.23224C8.29894 2.76339 7.66305 2.5 7.00001 2.5Z" fill="#C1C1C1"/>
</svg>
