<svg width="14" height="14" viewBox="0 0 14 14" fill="none" xmlns="http://www.w3.org/2000/svg">
<path d="M7.00001 0.333332C7.88407 0.333332 8.73191 0.684521 9.35703 1.30964C9.98215 1.93476 10.3333 2.78261 10.3333 3.66667C10.3333 4.55072 9.98215 5.39857 9.35703 6.02369C8.73191 6.64881 7.88407 7 7.00001 7C6.11595 7 5.26811 6.64881 4.64299 6.02369C4.01787 5.39857 3.66668 4.55072 3.66668 3.66667C3.66668 2.78261 4.01787 1.93476 4.64299 1.30964C5.26811 0.684521 6.11595 0.333332 7.00001 0.333332ZM7.00001 8.66667C10.6833 8.66667 13.6667 10.1583 13.6667 12V13.6667H0.333344V12C0.333344 10.1583 3.31668 8.66667 7.00001 8.66667Z" fill="#C1C1C1"/>
</svg>
